<svg version="1.1" xmlns="http://www.w3.org/2000/svg" viewBox="-2749.1840309143063 -1594.7520324707032 9629.44002685547 2713.344030761719"><desc>Created with Snap</desc><defs></defs><g><g transform="matrix(65.592,0,0,65.592,-2441.984,-1287.552)"><g display="none"><rect x="-69.333" y="-18.667" display="inline" fill="#195190" width="473.333" height="236" style=""></rect></g><g display="none"><g display="inline"><g><polygon fill="#195190" points="32,31.952 0,31.952 0,0.048    " style=""></polygon></g><g><polygon fill="#195190" points="23.347,23.325 8.653,23.325 8.653,8.675    " style=""></polygon></g></g><g display="inline"><g><polygon fill="#195190" points="0,0.048 32,0.048 32,31.952    " style=""></polygon></g><g><polygon fill="#195190" points="8.653,8.675 23.347,8.675 23.347,23.325    " style=""></polygon></g></g></g><g display="none"><g display="inline"><rect x="8.675" y="8.675" fill="#195190" stroke="#195190" stroke-miterlimit="10" width="14.65" height="14.65" style=""></rect><rect x="0.5" y="0.326" fill="#195190" stroke="#195190" stroke-miterlimit="10" width="31" height="31.348" style=""></rect><line fill="#195190" stroke="#195190" stroke-miterlimit="10" x1="0.413" y1="0.413" x2="31.587" y2="31.587" style=""></line></g></g><g display="none"><rect x="0.5" y="0.326" display="inline" fill="#195190" stroke="#195190" stroke-miterlimit="10" width="31" height="31.348" style=""></rect><rect x="8.675" y="8.675" display="inline" fill="#195190" stroke="#195190" stroke-miterlimit="10" width="14.65" height="14.65" style=""></rect><line display="inline" fill="#195190" stroke="#195190" stroke-miterlimit="10" x1="0.413" y1="0.413" x2="31.587" y2="31.587" style=""></line></g><g><g><polygon points="9.382,8.675 23.325,8.675 23.325,22.618 32,31.293 32,0 0.707,0   " fill="#195190" style=""></polygon><polygon points="22.618,23.325 8.675,23.325 8.675,9.382 0,0.707 0,32 31.293,32   " fill="#195190" style=""></polygon></g></g><desc>Created with Snap</desc><defs></defs></g><g><g transform="matrix(1.024,0,0,-1.024,0,0)"><path d="M215 -144L210 -192L185 -213L-35 -213L-29 -166L-5 -144L35 -144L99 378L27 378L33 425L57 447L179 447L177 353Q199 395 235 425Q271 456 328 456Q405 456 445 402Q486 349 486 266Q486 206 465 142Q445 78 398 34Q352 -10 274 -10Q180 -10 145 63L119 -144L215 -144ZM266 59Q313 59 341 91Q370 123 382 168Q395 214 395 255Q395 316 371 351Q347 387 301 387Q245 387 210 340Q176 294 167 245L159 176Q158 126 187 92Q216 59 266 59ZM732 552L645 552L656 655L743 655L732 552ZM553 378L559 425L583 447L719 447L672 69L742 69L736 19L712 0L580 0L625 378L553 378ZM1250 69L1245 21L1221 0L1021 0L1026 47L1050 69L1091 69L1006 192Q875 107 904 0L808 0Q788 70 844 124Q901 178 975 227L864 378L804 378L811 425L834 447L1033 447L1026 398L1002 378L959 378L1036 266Q1157 356 1132 447L1227 447Q1243 405 1218 366Q1194 328 1151 294Q1109 260 1068 232L1186 69L1250 69ZM1488 59Q1535 59 1560 84Q1586 110 1599 144L1667 129Q1654 73 1604 31Q1555 -10 1475 -10Q1394 -10 1345 39Q1297 88 1297 186Q1297 298 1359 377Q1421 456 1527 456Q1591 456 1634 425Q1677 394 1677 341Q1677 292 1640 257Q1604 222 1517 203Q1489 197 1456 191Q1423 186 1388 181Q1389 124 1412 91Q1435 59 1488 59ZM1478 252Q1549 268 1568 290Q1587 312 1587 335Q1587 366 1567 378Q1548 391 1518 391Q1456 391 1426 343Q1397 296 1390 238Q1418 242 1439 245Q1461 249 1478 252ZM1754 619L1760 667L1784 688L1920 688L1844 69L1914 69L1907 19L1884 0L1751 0L1826 619L1754 619ZM1993 619L1999 667L2024 688L2156 688L2117 367Q2140 408 2176 432Q2212 456 2262 456Q2325 456 2363 416Q2402 376 2391 291L2364 69L2434 69L2428 19L2404 0L2272 0L2304 261Q2312 329 2290 358Q2269 387 2226 387Q2175 387 2144 353Q2114 319 2105 274L2105 273L2072 0L1988 0L2063 619L1993 619ZM2681 59Q2728 59 2753 84Q2779 110 2792 144L2860 129Q2847 73 2797 31Q2748 -10 2668 -10Q2587 -10 2538 39Q2490 88 2490 186Q2490 298 2552 377Q2614 456 2720 456Q2784 456 2827 425Q2870 394 2870 341Q2870 292 2833 257Q2797 222 2710 203Q2682 197 2649 191Q2616 186 2581 181Q2582 124 2605 91Q2628 59 2681 59ZM2671 252Q2742 268 2761 290Q2780 312 2780 335Q2780 366 2760 378Q2741 391 2711 391Q2649 391 2619 343Q2590 296 2583 238Q2611 242 2632 245Q2654 249 2671 252ZM3288 447L3370 447Q3359 410 3350 374Q3341 339 3337 302L3308 69L3372 69L3367 19L3343 0L3229 0L3230 91Q3208 50 3172 20Q3136 -10 3079 -10Q3005 -10 2967 42Q2930 95 2930 180Q2930 238 2950 302Q2970 366 3015 411Q3061 456 3137 456Q3238 456 3268 372Q3275 405 3288 447ZM3148 387Q3099 387 3071 356Q3044 325 3032 279Q3021 234 3021 191Q3021 59 3108 59Q3159 59 3193 102Q3227 145 3238 190L3249 271Q3250 323 3220 355Q3191 387 3148 387ZM3650 447L3644 398L3620 378L3567 378L3651 101L3657 101Q3715 171 3744 231Q3774 291 3774 354Q3774 401 3756 447L3852 447Q3865 386 3854 320Q3844 255 3798 186Q3773 147 3728 95Q3683 44 3638 0L3596 0L3477 378L3424 378L3430 425L3454 447L3650 447ZM4103 59Q4150 59 4175 84Q4201 110 4214 144L4282 129Q4269 73 4219 31Q4170 -10 4090 -10Q4009 -10 3960 39Q3912 88 3912 186Q3912 298 3974 377Q4036 456 4142 456Q4206 456 4249 425Q4292 394 4292 341Q4292 292 4255 257Q4219 222 4132 203Q4104 197 4071 191Q4038 186 4003 181Q4004 124 4027 91Q4050 59 4103 59ZM4093 252Q4164 268 4183 290Q4202 312 4202 335Q4202 366 4182 378Q4163 391 4133 391Q4071 391 4041 343Q4012 296 4005 238Q4033 242 4054 245Q4076 249 4093 252ZM4357 425L4382 447L4503 447L4504 361Q4528 404 4564 430Q4601 456 4653 456Q4715 456 4753 416Q4791 376 4781 291L4754 69L4824 69L4818 19L4794 0L4663 0L4694 261Q4702 329 4681 358Q4661 387 4616 387Q4564 387 4533 351Q4503 315 4495 268L4463 0L4379 0L4424 378L4351 378L4357 425ZM4987 0L4877 0L4889 119L4999 119L4987 0ZM5092 191Q5092 295 5150 375Q5209 456 5326 456Q5424 456 5466 397Q5509 338 5509 252Q5509 140 5446 65Q5384 -10 5275 -10Q5184 -10 5138 45Q5092 100 5092 191ZM5184 197Q5184 136 5204 97Q5225 59 5283 59Q5355 59 5386 115Q5418 172 5418 249Q5418 314 5395 350Q5373 387 5316 387Q5250 387 5217 335Q5184 284 5184 197ZM5614 447L5730 447L5731 340Q5748 386 5776 421Q5805 457 5846 457Q5873 457 5899 439L5884 350Q5855 365 5831 365Q5793 365 5766 333Q5739 301 5728 257L5704 69L5794 69L5788 21L5764 0L5544 0L5551 47L5574 69L5618 69L5656 378L5584 378L5590 425L5614 447ZM6263 376L6281 447L6419 447L6413 398L6389 378L6343 378L6298 11Q6286 -88 6234 -156Q6182 -223 6074 -223Q6008 -223 5956 -190Q5905 -157 5893 -87L5956 -55Q5968 -104 6003 -126Q6038 -148 6080 -148Q6194 -148 6214 13L6223 88Q6200 48 6162 19Q6124 -10 6068 -10Q5994 -10 5957 42Q5920 95 5920 177Q5920 237 5941 301Q5963 366 6009 411Q6056 456 6132 456Q6231 456 6263 376ZM6142 387Q6072 387 6041 322Q6011 257 6011 187Q6011 59 6097 59Q6150 59 6187 103Q6225 147 6236 193L6245 267Q6247 320 6218 353Q6189 387 6142 387Z" fill="#195190" style=""></path></g></g></g></svg>