<svg version="1.1" xmlns="http://www.w3.org/2000/svg" viewBox="-2747.6480163574215 -1664.64002532959 10895.616708374024 2810.1120208740235"><desc>Created with Snap</desc><defs></defs><g><g transform="matrix(68.616,0,0,68.616,-2440.448,-1357.44)"><g display="none"><rect x="-69.333" y="-18.667" display="inline" fill="#195190" width="473.333" height="236" style=""></rect></g><g display="none"><g display="inline"><g><polygon fill="#195190" points="32,31.952 0,31.952 0,0.048    " style=""></polygon></g><g><polygon fill="#195190" points="23.347,23.325 8.653,23.325 8.653,8.675    " style=""></polygon></g></g><g display="inline"><g><polygon fill="#195190" points="0,0.048 32,0.048 32,31.952    " style=""></polygon></g><g><polygon fill="#195190" points="8.653,8.675 23.347,8.675 23.347,23.325    " style=""></polygon></g></g></g><g display="none"><g display="inline"><rect x="8.675" y="8.675" fill="#195190" stroke="#195190" stroke-miterlimit="10" width="14.65" height="14.65" style=""></rect><rect x="0.5" y="0.326" fill="#195190" stroke="#195190" stroke-miterlimit="10" width="31" height="31.348" style=""></rect><line fill="#195190" stroke="#195190" stroke-miterlimit="10" x1="0.413" y1="0.413" x2="31.587" y2="31.587" style=""></line></g></g><g display="none"><rect x="0.5" y="0.326" display="inline" fill="#195190" stroke="#195190" stroke-miterlimit="10" width="31" height="31.348" style=""></rect><rect x="8.675" y="8.675" display="inline" fill="#195190" stroke="#195190" stroke-miterlimit="10" width="14.65" height="14.65" style=""></rect><line display="inline" fill="#195190" stroke="#195190" stroke-miterlimit="10" x1="0.413" y1="0.413" x2="31.587" y2="31.587" style=""></line></g><g><g><polygon points="9.382,8.675 23.325,8.675 23.325,22.618 32,31.293 32,0 0.707,0   " fill="#195190" style=""></polygon><polygon points="22.618,23.325 8.675,23.325 8.675,9.382 0,0.707 0,32 31.293,32   " fill="#195190" style=""></polygon></g></g><desc>Created with Snap</desc><defs></defs></g><g><g transform="matrix(1.024,0,0,-1.024,0,0)"><path d="M375 -10Q313 -10 267 17Q221 45 195 92L195 -213L61 -213L61 524L178 524L178 434Q207 480 253 506Q299 533 359 533Q412 533 457 511Q502 490 534 453Q567 417 585 367Q604 318 604 263Q604 206 587 156Q570 106 539 69Q509 32 467 11Q425 -10 375 -10ZM330 104Q360 104 385 117Q411 130 429 152Q447 174 457 203Q467 232 467 263Q467 296 456 324Q445 353 425 374Q406 395 379 407Q353 419 322 419Q303 419 283 412Q263 406 246 394Q229 382 215 366Q202 350 195 331L195 208Q213 163 250 133Q287 104 330 104ZM829 0L695 0L695 524L829 524L829 0ZM829 597L695 597L695 730L829 730L829 597ZM896 524L1033 524L1146 360L1154 342L1164 360L1276 524L1414 524L1227 261L1417 0L1279 0L1163 163L1154 180L1146 163L1031 0L893 0L1082 261L896 524ZM1724 -10Q1661 -10 1610 11Q1559 33 1523 70Q1487 107 1467 156Q1448 205 1448 259Q1448 315 1467 364Q1486 414 1522 451Q1558 489 1609 511Q1661 533 1725 533Q1789 533 1839 511Q1890 489 1925 452Q1961 415 1979 366Q1998 317 1998 264Q1998 251 1997 239Q1997 227 1995 219L1590 219Q1593 188 1605 164Q1617 140 1636 123Q1655 106 1679 97Q1703 88 1729 88Q1769 88 1804 107Q1840 127 1853 159L1968 127Q1939 67 1875 28Q1812 -10 1724 -10ZM1588 306L1860 306Q1855 365 1816 400Q1778 436 1723 436Q1696 436 1672 426Q1649 417 1631 400Q1613 383 1601 359Q1590 335 1588 306ZM2079 121L2079 730L2213 730L2213 168Q2213 139 2227 123Q2241 107 2267 107Q2279 107 2293 111Q2308 115 2321 121L2339 19Q2312 6 2276 -1Q2240 -8 2211 -8Q2148 -8 2113 25Q2079 59 2079 121ZM2884 327L2884 0L2750 0L2750 294Q2750 356 2727 385Q2704 415 2662 415Q2644 415 2624 407Q2604 399 2586 384Q2568 370 2553 350Q2538 330 2531 306L2531 0L2397 0L2397 730L2531 730L2531 427Q2560 478 2609 505Q2659 533 2719 533Q2770 533 2802 515Q2834 498 2852 469Q2870 440 2877 403Q2884 366 2884 327ZM3244 -10Q3181 -10 3130 11Q3079 33 3043 70Q3007 107 2987 156Q2968 205 2968 259Q2968 315 2987 364Q3006 414 3042 451Q3078 489 3129 511Q3181 533 3245 533Q3309 533 3359 511Q3410 489 3445 452Q3481 415 3499 366Q3518 317 3518 264Q3518 251 3517 239Q3517 227 3515 219L3110 219Q3113 188 3125 164Q3137 140 3156 123Q3175 106 3199 97Q3223 88 3249 88Q3289 88 3324 107Q3360 127 3373 159L3488 127Q3459 67 3395 28Q3332 -10 3244 -10ZM3108 306L3380 306Q3375 365 3336 400Q3298 436 3243 436Q3216 436 3192 426Q3169 417 3151 400Q3133 383 3121 359Q3110 335 3108 306ZM3743 -10Q3705 -10 3672 2Q3639 15 3615 37Q3591 60 3577 90Q3564 120 3564 156Q3564 193 3580 224Q3597 256 3626 278Q3656 300 3697 312Q3738 325 3787 325Q3822 325 3855 319Q3889 313 3915 302L3915 332Q3915 384 3885 412Q3856 440 3798 440Q3756 440 3716 425Q3676 410 3634 381L3593 466Q3694 533 3811 533Q3924 533 3986 477Q4049 422 4049 317L4049 154Q4049 133 4056 124Q4064 115 4081 114L4081 0Q4047 -7 4022 -7Q3984 -7 3963 10Q3943 27 3938 55L3935 84Q3900 38 3850 14Q3800 -10 3743 -10ZM3781 88Q3815 88 3845 100Q3876 112 3893 132Q3915 149 3915 170L3915 230Q3891 239 3863 244Q3835 250 3809 250Q3757 250 3724 226Q3691 203 3691 167Q3691 133 3717 110Q3743 88 3781 88ZM4460 0L4315 0L4122 524L4260 524L4393 109L4527 524L4653 524L4460 0ZM4966 -10Q4903 -10 4852 11Q4801 33 4765 70Q4729 107 4709 156Q4690 205 4690 259Q4690 315 4709 364Q4728 414 4764 451Q4800 489 4851 511Q4903 533 4967 533Q5031 533 5081 511Q5132 489 5167 452Q5203 415 5221 366Q5240 317 5240 264Q5240 251 5239 239Q5239 227 5237 219L4832 219Q4835 188 4847 164Q4859 140 4878 123Q4897 106 4921 97Q4945 88 4971 88Q5011 88 5046 107Q5082 127 5095 159L5210 127Q5181 67 5117 28Q5054 -10 4966 -10ZM4830 306L5102 306Q5097 365 5058 400Q5020 436 4965 436Q4938 436 4914 426Q4891 417 4873 400Q4855 383 4843 359Q4832 335 4830 306ZM5809 327L5809 0L5675 0L5675 294Q5675 357 5653 386Q5631 415 5592 415Q5572 415 5551 407Q5530 399 5511 384Q5493 370 5478 350Q5463 330 5456 306L5456 0L5322 0L5322 524L5443 524L5443 427Q5472 477 5527 505Q5582 533 5651 533Q5700 533 5731 515Q5762 497 5779 468Q5796 439 5802 402Q5809 365 5809 327ZM6033 0L5923 0L5923 144L6033 144L6033 0ZM6393 -10Q6329 -10 6278 12Q6227 34 6191 71Q6156 109 6137 158Q6118 207 6118 261Q6118 316 6137 365Q6156 414 6191 451Q6227 489 6278 511Q6329 533 6393 533Q6457 533 6507 511Q6558 489 6593 451Q6629 414 6648 365Q6667 316 6667 261Q6667 207 6648 158Q6629 109 6594 71Q6559 34 6508 12Q6457 -10 6393 -10ZM6256 261Q6256 226 6266 197Q6277 169 6295 148Q6314 127 6339 115Q6364 104 6393 104Q6422 104 6447 115Q6472 127 6490 148Q6509 169 6519 198Q6530 227 6530 262Q6530 296 6519 325Q6509 354 6490 375Q6472 396 6447 407Q6422 419 6393 419Q6364 419 6339 407Q6314 395 6295 374Q6277 353 6266 324Q6256 295 6256 261ZM7069 530L7069 408Q7008 407 6960 384Q6912 362 6891 317L6891 0L6757 0L6757 524L6880 524L6880 412Q6894 439 6913 460Q6932 482 6954 498Q6976 514 6998 522Q7021 531 7042 531Q7053 531 7058 531Q7064 531 7069 530ZM7349 -3Q7296 -3 7253 18Q7210 39 7178 75Q7147 112 7130 160Q7113 208 7113 262Q7113 319 7131 368Q7149 417 7181 454Q7213 491 7258 512Q7303 533 7357 533Q7418 533 7464 505Q7510 478 7540 432L7540 524L7657 524L7657 25Q7657 -33 7635 -79Q7613 -125 7574 -157Q7536 -189 7482 -206Q7429 -223 7366 -223Q7280 -223 7221 -195Q7163 -166 7121 -114L7194 -43Q7224 -80 7269 -101Q7315 -122 7366 -122Q7397 -122 7425 -114Q7454 -105 7476 -87Q7498 -69 7510 -41Q7523 -13 7523 25L7523 91Q7497 46 7450 21Q7403 -3 7349 -3ZM7394 104Q7416 104 7436 111Q7456 118 7473 130Q7490 142 7503 158Q7516 174 7523 192L7523 317Q7505 363 7466 391Q7428 419 7386 419Q7355 419 7330 405Q7305 392 7287 369Q7269 347 7259 318Q7250 289 7250 258Q7250 226 7261 198Q7272 170 7291 149Q7311 128 7337 116Q7363 104 7394 104Z" fill="#195190" style=""></path></g></g></g></svg>