<svg version="1.1" xmlns="http://www.w3.org/2000/svg" viewBox="-2726.144033813476 -1694.8480407714844 11242.752160644532 2819.3280395507813"><desc>Created with Snap</desc><defs></defs><g><g transform="matrix(68.904,0,0,68.904,-2418.944,-1387.648)"><g display="none"><rect x="-69.333" y="-18.667" display="inline" fill="#195190" width="473.333" height="236" style=""></rect></g><g display="none"><g display="inline"><g><polygon fill="#195190" points="32,31.952 0,31.952 0,0.048    " style=""></polygon></g><g><polygon fill="#195190" points="23.347,23.325 8.653,23.325 8.653,8.675    " style=""></polygon></g></g><g display="inline"><g><polygon fill="#195190" points="0,0.048 32,0.048 32,31.952    " style=""></polygon></g><g><polygon fill="#195190" points="8.653,8.675 23.347,8.675 23.347,23.325    " style=""></polygon></g></g></g><g display="none"><g display="inline"><rect x="8.675" y="8.675" fill="#195190" stroke="#195190" stroke-miterlimit="10" width="14.65" height="14.65" style=""></rect><rect x="0.5" y="0.326" fill="#195190" stroke="#195190" stroke-miterlimit="10" width="31" height="31.348" style=""></rect><line fill="#195190" stroke="#195190" stroke-miterlimit="10" x1="0.413" y1="0.413" x2="31.587" y2="31.587" style=""></line></g></g><g display="none"><rect x="0.5" y="0.326" display="inline" fill="#195190" stroke="#195190" stroke-miterlimit="10" width="31" height="31.348" style=""></rect><rect x="8.675" y="8.675" display="inline" fill="#195190" stroke="#195190" stroke-miterlimit="10" width="14.65" height="14.65" style=""></rect><line display="inline" fill="#195190" stroke="#195190" stroke-miterlimit="10" x1="0.413" y1="0.413" x2="31.587" y2="31.587" style=""></line></g><g><g><polygon points="9.382,8.675 23.325,8.675 23.325,22.618 32,31.293 32,0 0.707,0   " fill="#195190" style=""></polygon><polygon points="22.618,23.325 8.675,23.325 8.675,9.382 0,0.707 0,32 31.293,32   " fill="#195190" style=""></polygon></g></g><desc>Created with Snap</desc><defs></defs></g><g><g transform="matrix(1.024,0,0,-1.024,0,0)"><path d="M372 535Q449 535 510 501Q571 467 605 406Q640 345 640 265Q640 185 605 123Q571 62 510 28Q449 -6 372 -6Q315 -6 267 16Q220 38 187 80L187 -194L91 -194L91 530L183 530L183 446Q215 490 264 512Q313 535 372 535ZM364 78Q415 78 455 101Q496 125 519 167Q543 210 543 265Q543 320 519 362Q496 405 455 428Q415 451 364 451Q314 451 273 427Q233 404 209 362Q186 320 186 265Q186 210 209 167Q232 125 273 101Q314 78 364 78ZM773 0L773 530L869 530L869 0L773 0ZM821 632Q793 632 774 650Q756 668 756 694Q756 720 774 738Q793 757 821 757Q849 757 867 739Q886 722 886 696Q886 669 867 650Q849 632 821 632ZM1499 0L1390 0L1237 203L1082 0L975 0L1184 271L985 530L1092 530L1238 339L1383 530L1488 530L1288 271L1499 0ZM2083 262Q2083 251 2081 233L1651 233Q1660 163 1712 120Q1765 78 1843 78Q1938 78 1996 142L2049 80Q2013 38 1959 16Q1906 -6 1840 -6Q1756 -6 1691 28Q1626 63 1590 125Q1555 187 1555 265Q1555 342 1589 404Q1624 466 1684 500Q1745 535 1821 535Q1897 535 1956 500Q2016 466 2049 404Q2083 342 2083 262ZM1821 454Q1752 454 1705 412Q1659 370 1651 302L1991 302Q1983 369 1936 411Q1890 454 1821 454ZM2216 0L2216 742L2312 742L2312 0L2216 0ZM2778 535Q2879 535 2938 476Q2998 418 2998 305L2998 0L2902 0L2902 294Q2902 371 2865 410Q2828 449 2759 449Q2681 449 2636 403Q2591 358 2591 273L2591 0L2495 0L2495 742L2591 742L2591 455Q2621 493 2669 514Q2718 535 2778 535ZM3655 262Q3655 251 3653 233L3223 233Q3232 163 3284 120Q3337 78 3415 78Q3510 78 3568 142L3621 80Q3585 38 3531 16Q3478 -6 3412 -6Q3328 -6 3263 28Q3198 63 3162 125Q3127 187 3127 265Q3127 342 3161 404Q3196 466 3256 500Q3317 535 3393 535Q3469 535 3528 500Q3588 466 3621 404Q3655 342 3655 262ZM3393 454Q3324 454 3277 412Q3231 370 3223 302L3563 302Q3555 369 3508 411Q3462 454 3393 454ZM3981 535Q4091 535 4149 481Q4208 427 4208 320L4208 0L4117 0L4117 70Q4093 33 4048 13Q4004 -6 3943 -6Q3854 -6 3800 37Q3747 80 3747 150Q3747 220 3798 262Q3849 305 3960 305L4112 305L4112 324Q4112 386 4076 419Q4040 452 3970 452Q3923 452 3878 436Q3833 421 3802 395L3762 467Q3803 500 3860 517Q3917 535 3981 535ZM3959 68Q4014 68 4054 92Q4094 117 4112 162L4112 236L3964 236Q3842 236 3842 154Q3842 114 3873 91Q3904 68 3959 68ZM4761 530L4855 530L4623 0L4525 0L4293 530L4393 530L4575 105L4761 530ZM5424 262Q5424 251 5422 233L4992 233Q5001 163 5053 120Q5106 78 5184 78Q5279 78 5337 142L5390 80Q5354 38 5300 16Q5247 -6 5181 -6Q5097 -6 5032 28Q4967 63 4931 125Q4896 187 4896 265Q4896 342 4930 404Q4965 466 5025 500Q5086 535 5162 535Q5238 535 5297 500Q5357 466 5390 404Q5424 342 5424 262ZM5162 454Q5093 454 5046 412Q5000 370 4992 302L5332 302Q5324 369 5277 411Q5231 454 5162 454ZM5840 535Q5941 535 6000 476Q6060 418 6060 305L6060 0L5964 0L5964 294Q5964 371 5927 410Q5890 449 5821 449Q5743 449 5698 403Q5653 358 5653 273L5653 0L5557 0L5557 530L5649 530L5649 450Q5678 491 5727 513Q5777 535 5840 535ZM6261 -6Q6233 -6 6213 13Q6193 33 6193 63Q6193 92 6213 111Q6233 131 6261 131Q6289 131 6308 112Q6327 93 6327 63Q6327 33 6307 13Q6288 -6 6261 -6ZM6692 -6Q6613 -6 6550 29Q6487 64 6451 125Q6416 187 6416 265Q6416 343 6451 404Q6487 466 6550 500Q6613 535 6692 535Q6771 535 6833 500Q6896 466 6931 404Q6967 343 6967 265Q6967 187 6931 125Q6896 64 6833 29Q6771 -6 6692 -6ZM6692 78Q6743 78 6783 101Q6824 125 6847 167Q6870 210 6870 265Q6870 320 6847 362Q6824 405 6783 428Q6743 451 6692 451Q6641 451 6600 428Q6560 405 6536 362Q6513 320 6513 265Q6513 210 6536 167Q6560 125 6600 101Q6641 78 6692 78ZM7192 441Q7217 487 7266 511Q7315 535 7385 535L7385 442Q7377 443 7363 443Q7285 443 7240 396Q7196 350 7196 264L7196 0L7100 0L7100 530L7192 530L7192 441ZM7926 530L8017 530L8017 72Q8017 -67 7948 -134Q7879 -200 7742 -200Q7667 -200 7599 -180Q7531 -159 7489 -121L7535 -47Q7572 -79 7626 -98Q7681 -116 7739 -116Q7832 -116 7876 -72Q7921 -28 7921 62L7921 104Q7887 63 7837 42Q7788 22 7730 22Q7654 22 7592 54Q7531 87 7496 145Q7461 204 7461 279Q7461 354 7496 412Q7531 471 7592 503Q7654 535 7730 535Q7790 535 7841 513Q7893 491 7926 448L7926 530ZM7741 106Q7793 106 7834 128Q7876 150 7899 189Q7923 229 7923 279Q7923 356 7872 403Q7821 451 7741 451Q7660 451 7609 403Q7558 356 7558 279Q7558 229 7581 189Q7605 150 7646 128Q7688 106 7741 106Z" fill="#195190" style=""></path></g></g></g></svg>